<svg width="136" height="82" viewBox="0 0 136 82" fill="none" xmlns="http://www.w3.org/2000/svg">
<path d="M134.501 4.185C133.816 2.53564 132.505 1.22496 130.856 0.539999C130.045 0.194123 129.173 0.0106649 128.291 0H94.5411C92.7509 0 91.034 0.71116 89.7681 1.97703C88.5022 3.2429 87.7911 4.95979 87.7911 6.75C87.7911 8.54021 88.5022 10.2571 89.7681 11.523C91.034 12.7888 92.7509 13.5 94.5411 13.5H112.024L74.2911 51.2325L52.0836 28.9575C51.4561 28.3248 50.7095 27.8227 49.887 27.48C49.0644 27.1373 48.1822 26.9609 47.2911 26.9609C46.4 26.9609 45.5177 27.1373 44.6952 27.48C43.8726 27.8227 43.1261 28.3248 42.4986 28.9575L1.99859 69.4575C1.36592 70.085 0.863763 70.8316 0.521075 71.6541C0.178386 72.4767 0.00195312 73.3589 0.00195312 74.25C0.00195313 75.1411 0.178386 76.0233 0.521075 76.8459C0.863763 77.6684 1.36592 78.415 1.99859 79.0425C2.62609 79.6752 3.37265 80.1773 4.1952 80.52C5.01775 80.8627 5.90001 81.0391 6.79109 81.0391C7.68217 81.0391 8.56443 80.8627 9.38698 80.52C10.2095 80.1773 10.9561 79.6752 11.5836 79.0425L47.2911 43.2675L69.4986 65.5425C70.1261 66.1752 70.8726 66.6773 71.6952 67.02C72.5177 67.3627 73.4 67.5391 74.2911 67.5391C75.1822 67.5391 76.0644 67.3627 76.887 67.02C77.7095 66.6773 78.4561 66.1752 79.0836 65.5425L121.541 23.0175V40.5C121.541 42.2902 122.252 44.0071 123.518 45.273C124.784 46.5388 126.501 47.25 128.291 47.25C130.081 47.25 131.798 46.5388 133.064 45.273C134.33 44.0071 135.041 42.2902 135.041 40.5V6.75C135.03 5.86793 134.847 4.9965 134.501 4.185Z" fill="#3461FF"/>
</svg>
