<svg width="39" height="39" viewBox="0 0 39 39" fill="none" xmlns="http://www.w3.org/2000/svg">
<path d="M29.5 2.31251C29.5005 2.02782 29.4165 1.7494 29.2586 1.51253C29.1006 1.27566 28.8759 1.09102 28.613 0.982004C28.35 0.872991 28.0605 0.84452 27.7814 0.900199C27.5022 0.955879 27.2458 1.0932 27.0448 1.29476L21.2948 7.04476C21.1613 7.1785 21.0556 7.33723 20.9836 7.51186C20.9116 7.68649 20.8747 7.87361 20.875 8.06251V16.0924L18.7446 18.2199C18.3185 18.1068 17.872 18.093 17.4397 18.1797C17.0073 18.2663 16.6007 18.451 16.251 18.7196C15.9013 18.9882 15.6179 19.3335 15.4227 19.7288C15.2275 20.1242 15.1257 20.5591 15.125 21C15.1252 21.4092 15.2127 21.8136 15.3817 22.1862C15.5507 22.5588 15.7973 22.8911 16.105 23.1607C16.4127 23.4304 16.7744 23.6313 17.1659 23.75C17.5575 23.8687 17.9699 23.9025 18.3755 23.8491C18.7812 23.7956 19.1707 23.6562 19.5182 23.4402C19.8656 23.2241 20.163 22.9364 20.3903 22.5962C20.6177 22.256 20.7698 21.8712 20.8365 21.4676C20.9032 21.0639 20.883 20.6506 20.7773 20.2554L22.9076 18.125H30.9375C31.1264 18.1253 31.3135 18.0884 31.4881 18.0164C31.6628 17.9444 31.8215 17.8387 31.9553 17.7053L37.7052 11.9553C37.9068 11.7542 38.0441 11.4978 38.0998 11.2187C38.1555 10.9395 38.127 10.65 38.018 10.3871C37.909 10.1241 37.7243 9.89937 37.4875 9.74145C37.2506 9.58353 36.9722 9.4995 36.6875 9.50001H29.5V2.31251ZM35.089 18.6368C35.5837 22.2166 34.9416 25.8614 33.2533 29.0567C31.5651 32.252 28.9159 34.8364 25.6798 36.445C22.4437 38.0536 18.784 38.6053 15.2175 38.022C11.651 37.4388 8.35776 35.7502 5.80261 33.1946C3.24746 30.6389 1.55949 27.3453 0.976966 23.7787C0.394444 20.2121 0.946795 16.5526 2.55605 13.3168C4.1653 10.081 6.75018 7.43229 9.9458 5.74464C13.1414 4.05699 16.7864 3.4156 20.3661 3.91101L19.265 5.01213C18.8641 5.41255 18.546 5.88804 18.329 6.41144C18.1119 6.93484 18.0001 7.49589 18 8.06251C15.4412 8.06251 12.9399 8.82128 10.8123 10.2429C8.68475 11.6645 7.02652 13.685 6.04731 16.049C5.0681 18.4131 4.8119 21.0144 5.31109 23.524C5.81029 26.0336 7.04246 28.3389 8.85181 30.1482C10.6611 31.9575 12.9664 33.1897 15.476 33.6889C17.9856 34.1881 20.5869 33.9319 22.951 32.9527C25.315 31.9735 27.3355 30.3153 28.7571 28.1877C30.1787 26.0601 30.9375 23.5588 30.9375 21C32.0809 20.999 33.177 20.544 33.985 19.735L35.089 18.6368ZM18 10.9375C16.0098 10.9375 14.0643 11.5277 12.4096 12.6333C10.7548 13.739 9.46507 15.3106 8.70346 17.1493C7.94186 18.9879 7.74259 21.0112 8.13085 22.9631C8.51911 24.915 9.47747 26.708 10.8847 28.1153C12.292 29.5225 14.085 30.4809 16.0369 30.8692C17.9888 31.2574 20.0121 31.0582 21.8508 30.2965C23.6894 29.5349 25.261 28.2452 26.3667 26.5904C27.4723 24.9357 28.0625 22.9902 28.0625 21H24.0979L23.7385 21.3594C23.6694 22.4639 23.283 23.525 22.6258 24.4153C21.9685 25.3056 21.0683 25.9874 20.0331 26.3787C18.998 26.7701 17.8719 26.8544 16.79 26.6216C15.7081 26.3888 14.7164 25.8487 13.9339 25.0661C13.1513 24.2836 12.6113 23.2919 12.3784 22.21C12.1456 21.1281 12.2299 20.002 12.6213 18.9669C13.0126 17.9317 13.6944 17.0315 14.5847 16.3743C15.475 15.717 16.5361 15.3306 17.6406 15.2615L18 14.9021V10.9375Z" fill="white"/>
</svg>
