<svg width="46" height="46" viewBox="0 0 46 46" fill="none" xmlns="http://www.w3.org/2000/svg">
<path d="M42.2841 17.25L17.25 42.2823C16.983 42.5493 16.6661 42.7611 16.3172 42.9057C15.9683 43.0502 15.5944 43.1246 15.2168 43.1246C14.8392 43.1246 14.4653 43.0502 14.1165 42.9057C13.7676 42.7611 13.4507 42.5493 13.1837 42.2823L3.71594 32.8163C3.4489 32.5493 3.23707 32.2324 3.09255 31.8835C2.94802 31.5347 2.87364 31.1608 2.87364 30.7832C2.87364 30.4056 2.94802 30.0316 3.09255 29.6828C3.23707 29.3339 3.4489 29.017 3.71594 28.75L8.95742 23.5085C9.02418 23.4417 9.10345 23.3887 9.1907 23.3525C9.27796 23.3163 9.37148 23.2977 9.46594 23.2977C9.56039 23.2977 9.65392 23.3163 9.74118 23.3525C9.82843 23.3887 9.9077 23.4417 9.97445 23.5085L16.233 29.767C16.3727 29.9067 16.5398 30.0161 16.7237 30.0883C16.9076 30.1605 17.1044 30.194 17.3019 30.1868C17.4993 30.1795 17.6932 30.1316 17.8713 30.0461C18.0494 29.9606 18.208 29.8393 18.3371 29.6898C18.5732 29.405 18.6932 29.0417 18.6732 28.6723C18.6532 28.3029 18.4947 27.9547 18.2293 27.697L12.0067 21.4744C11.8723 21.3397 11.7968 21.1572 11.7968 20.9668C11.7968 20.7765 11.8723 20.594 12.0067 20.4592L14.702 17.7639C14.7688 17.6971 14.8481 17.6441 14.9353 17.6079C15.0226 17.5717 15.1161 17.5531 15.2105 17.5531C15.305 17.5531 15.3985 17.5717 15.4858 17.6079C15.573 17.6441 15.6523 17.6971 15.7191 17.7639L21.9776 24.0224C22.1173 24.1621 22.2844 24.2714 22.4683 24.3437C22.6522 24.4159 22.849 24.4494 23.0465 24.4422C23.2439 24.4349 23.4378 24.387 23.6159 24.3015C23.794 24.216 23.9526 24.0947 24.0817 23.9451C24.3178 23.6604 24.4378 23.297 24.4178 22.9277C24.3979 22.5583 24.2393 22.2101 23.9739 21.9524L17.7585 15.7244C17.6241 15.5897 17.5486 15.4072 17.5486 15.2168C17.5486 15.0265 17.6241 14.844 17.7585 14.7092L20.4538 12.0139C20.5886 11.8795 20.7711 11.804 20.9614 11.804C21.1518 11.804 21.3343 11.8795 21.4691 12.0139L27.7276 18.2724C27.8674 18.4124 28.0345 18.522 28.2186 18.5944C28.4027 18.6668 28.5997 18.7004 28.7974 18.6931C28.9951 18.6859 29.1891 18.6379 29.3674 18.5522C29.5457 18.4665 29.7044 18.345 29.8335 18.1951C30.0694 17.9102 30.1891 17.5467 30.1688 17.1773C30.1484 16.808 29.9896 16.4598 29.7239 16.2024L23.5085 9.97445C23.3741 9.8397 23.2986 9.65715 23.2986 9.46683C23.2986 9.27651 23.3741 9.09395 23.5085 8.95921L28.75 3.71773C29.017 3.45069 29.3339 3.23886 29.6828 3.09434C30.0317 2.94981 30.4056 2.87543 30.7832 2.87543C31.1608 2.87543 31.5347 2.94981 31.8835 3.09434C32.2324 3.23886 32.5494 3.45069 32.8163 3.71773L42.2841 13.1837C42.5511 13.4506 42.7629 13.7676 42.9075 14.1165C43.052 14.4653 43.1264 14.8392 43.1264 15.2168C43.1264 15.5944 43.052 15.9683 42.9075 16.3172C42.7629 16.666 42.5511 16.983 42.2841 17.25Z" fill="white"/>
</svg>
