<svg width="46" height="46" viewBox="0 0 46 46" fill="none" xmlns="http://www.w3.org/2000/svg">
<path d="M24.15 4.59998C23.845 4.59998 23.5525 4.72114 23.3368 4.9368C23.1212 5.15247 23 5.44498 23 5.74998V11.73C23 14.8971 25.1321 17.5628 28.037 18.377C27.531 24.679 25.7094 29.3825 24.2167 32.2828C24.6399 32.7796 25.0378 33.1499 25.3483 33.4098C26.542 34.408 27.6 36.0341 27.6 38.0627C27.6015 39.2636 27.2178 40.4333 26.5052 41.4H39.1C40.015 41.4 40.8925 41.0365 41.5395 40.3895C42.1865 39.7425 42.55 38.865 42.55 37.95V37.2439C42.55 36.4435 42.2763 35.7052 41.8554 35.1003C40.6134 33.3132 37.0967 27.5333 36.3607 18.3747C37.8104 17.9683 39.0875 17.099 39.9973 15.8994C40.9071 14.6998 41.3997 13.2356 41.4 11.73V5.74998C41.4 5.44498 41.2788 5.15247 41.0632 4.9368C40.8475 4.72114 40.555 4.59998 40.25 4.59998H38.525C38.0675 4.59998 37.6287 4.78172 37.3052 5.10522C36.9817 5.42872 36.8 5.86748 36.8 6.32498V8.04998C36.8003 8.201 36.7709 8.3506 36.7133 8.49024C36.6558 8.62988 36.5714 8.75682 36.4648 8.86382C36.2496 9.07992 35.9573 9.20167 35.6523 9.20228C35.3473 9.20289 35.0546 9.08231 34.8385 8.86707C34.6224 8.65184 34.5006 8.35957 34.5 8.05458V8.04998L34.4908 6.31578C34.4884 5.85987 34.3056 5.42347 33.9823 5.10196C33.6591 4.78045 33.2217 4.59997 32.7658 4.59998H31.6342C31.1783 4.59997 30.7409 4.78045 30.4177 5.10196C30.0944 5.42347 29.9116 5.85987 29.9092 6.31578L29.9 8.05458C29.8994 8.35957 29.7776 8.65184 29.5615 8.86707C29.3454 9.08231 29.0527 9.20289 28.7477 9.20228C28.4427 9.20167 28.1504 9.07992 27.9352 8.86382C27.72 8.64772 27.5994 8.35497 27.6 8.04998V6.32498C27.6 5.86748 27.4183 5.42872 27.0948 5.10522C26.7713 4.78172 26.3325 4.59998 25.875 4.59998H24.15ZM14.95 11.5C13.618 11.5 12.3145 11.8856 11.1968 12.6101C10.0792 13.3346 9.19508 14.3672 8.65131 15.5831C8.10755 16.7991 7.92734 18.1464 8.13245 19.4625C8.33756 20.7786 8.91921 22.0072 9.8072 23H9.2C8.59 23 8.00499 23.2423 7.57365 23.6736C7.14232 24.105 6.9 24.69 6.9 25.3C6.9 25.91 7.14232 26.495 7.57365 26.9263C8.00499 27.3577 8.59 27.6 9.2 27.6H10.396C9.5404 31.7354 7.2841 34.1228 6.026 35.1739C5.2302 35.8409 4.6 36.8667 4.6 38.0627C4.6 39.905 6.095 41.4 7.9373 41.4H21.965C23.805 41.4 25.3 39.905 25.3 38.0627C25.3 36.8667 24.6698 35.8409 23.874 35.1739C22.6159 34.1228 20.3596 31.7354 19.504 27.6H20.7C21.31 27.6 21.895 27.3577 22.3263 26.9263C22.7577 26.495 23 25.91 23 25.3C23 24.69 22.7577 24.105 22.3263 23.6736C21.895 23.2423 21.31 23 20.7 23H20.0928C20.9808 22.0072 21.5624 20.7786 21.7675 19.4625C21.9727 18.1464 21.7924 16.7991 21.2487 15.5831C20.7049 14.3672 19.8208 13.3346 18.7032 12.6101C17.5855 11.8856 16.282 11.5 14.95 11.5Z" fill="white"/>
</svg>
